<svg version="1.1" id="Layer_1" xmlns="http://www.w3.org/2000/svg" xmlns:xlink="http://www.w3.org/1999/xlink" x="0px" y="0px"
	 width="100%" viewBox="0 0 325 262" enable-background="new 0 0 325 262" xml:space="preserve">
<path fill="#27C3C9" opacity="1.000000" stroke="none" 
	d="
M323.000000,1.000000 
	C323.999481,1.000000 324.998962,1.000000 325.998840,1.000000 
	C325.999207,88.287834 325.999207,175.575668 325.999207,262.931763 
	C217.768005,262.931763 109.535957,262.931763 1.000000,262.931763 
	C1.000000,176.646011 1.000000,90.291664 1.213385,3.819601 
	C1.912919,3.454026 2.399069,3.206166 3.163781,2.972301 
	C3.628228,2.990863 3.814114,2.995430 4.161864,3.265002 
	C4.896745,4.391330 5.469760,5.252655 6.024559,6.575127 
	C6.006342,90.922714 6.006342,174.809158 6.006342,258.697632 
	C111.640938,258.697632 216.658722,258.697632 321.957855,258.697632 
	C321.957855,174.302017 321.957855,90.208389 322.023651,5.791933 
	C322.392975,4.646068 322.696472,3.823039 323.000000,2.666675 
	C323.000000,1.888893 323.000000,1.444447 323.000000,1.000000 
z"/>
<path fill="#26C3CA" opacity="1.000000" stroke="none" 
	d="
M322.532166,1.000000 
	C323.000000,1.444447 323.000000,1.888893 322.665558,2.705403 
	C321.553925,3.996102 320.776764,4.914738 319.535706,5.904451 
	C216.376236,5.983558 113.680611,5.992058 10.984982,5.992727 
	C9.990009,5.992733 8.995036,5.888787 7.961955,5.508622 
	C6.949231,3.789248 5.974615,2.394624 5.000000,1.000000 
	C110.688103,1.000000 216.376205,1.000000 322.532166,1.000000 
z"/>
<path fill="#26C3C9" opacity="1.000000" stroke="none" 
	d="
M4.750000,1.000000 
	C5.974615,2.394624 6.949231,3.789248 7.639619,5.580818 
	C6.917853,6.023169 6.480314,6.068574 6.042775,6.113979 
	C5.469760,5.252655 4.896745,4.391330 4.161864,2.931750 
	C4.000000,1.888996 4.000000,1.444498 4.000000,1.000000 
	C4.000000,1.000000 4.500000,1.000000 4.750000,1.000000 
z"/>
<path fill="#000000" opacity="1.000000" stroke="none" 
	d="
M2.885219,2.958307 
	C2.399069,3.206166 1.912919,3.454026 1.213385,3.350943 
	C1.000000,2.333333 1.000000,1.666667 1.549302,1.279436 
	C2.360809,2.025350 2.623014,2.491828 2.885219,2.958307 
z"/>
<path fill="#26C3CA" opacity="1.000000" stroke="none" 
	d="
M3.163781,2.972301 
	C2.623014,2.491828 2.360809,2.025350 2.049302,1.279436 
	C2.444499,1.000000 2.888997,1.000000 3.666748,1.000000 
	C4.000000,1.444498 4.000000,1.888996 4.000000,2.666746 
	C3.814114,2.995430 3.628228,2.990863 3.163781,2.972301 
z"/>
<path fill="#000000" opacity="1.000000" stroke="none" 
	d="
M6.024559,6.575127 
	C6.480314,6.068574 6.917853,6.023169 7.677728,5.905568 
	C8.995036,5.888787 9.990009,5.992733 10.984982,5.992727 
	C113.680611,5.992058 216.376236,5.983558 319.858215,5.976655 
	C321.082336,6.023443 321.520111,6.069105 321.957855,6.114768 
	C321.957855,90.208389 321.957855,174.302017 321.957855,258.697632 
	C216.658722,258.697632 111.640938,258.697632 6.006342,258.697632 
	C6.006342,174.809158 6.006342,90.922714 6.024559,6.575127 
M114.975113,91.158081 
	C114.333351,87.736534 113.691582,84.314980 112.982628,80.436874 
	C112.982628,80.436874 112.833191,80.000282 112.974922,79.165413 
	C112.471619,62.910702 101.187263,56.576698 85.214653,58.984627 
	C84.476524,59.045399 83.738403,59.106167 82.247162,59.039146 
	C77.957306,61.400169 73.585777,63.632217 69.456642,66.247040 
	C68.754761,66.691513 69.092873,68.778290 68.974350,70.851509 
	C69.004463,74.583519 68.544693,78.397179 69.150711,82.033203 
	C71.584785,96.637054 73.851364,111.298149 77.107475,125.728790 
	C81.995804,147.393280 87.436348,168.943176 93.218315,190.386414 
	C94.207214,194.053909 97.443649,198.041397 100.754753,199.935776 
	C105.507080,202.654709 111.181824,204.087891 116.640953,205.176636 
	C127.852768,207.412689 138.827896,206.186768 149.105545,200.898941 
	C150.654251,200.102127 152.480423,198.551437 152.879898,197.012451 
	C157.291840,180.015396 161.446945,162.951660 165.660599,145.950226 
	C169.758240,160.663971 173.906693,175.465134 177.992645,190.283524 
	C179.427628,195.487717 181.617615,199.780884 187.081512,202.126984 
	C200.959076,208.085831 214.915512,206.900360 228.797394,202.800186 
	C232.089096,201.827957 235.939621,199.379700 237.457672,196.511810 
	C240.144577,191.435867 241.721481,185.618332 242.913940,179.933090 
	C247.151031,159.732086 251.089844,139.467575 255.025024,119.204475 
	C257.967407,104.053497 260.309143,88.830032 260.032471,73.310951 
	C259.931152,67.629341 257.537811,63.471310 252.415909,61.195145 
	C241.749100,56.454838 231.214325,57.241032 220.973068,62.609776 
	C220.138199,63.047436 219.187622,64.095383 219.077957,64.959641 
	C217.636490,76.319450 216.264526,87.689354 215.022690,99.072830 
	C213.902267,109.343231 213.175354,119.660065 211.888931,129.907959 
	C210.364761,142.049637 208.427231,154.139420 206.621796,166.575867 
	C206.044083,165.646957 205.315445,164.914719 205.092224,164.051743 
	C200.341156,145.684525 195.599304,127.314621 190.962936,108.918198 
	C188.862167,100.582558 185.305496,93.795609 176.047012,91.461365 
	C165.822586,88.883583 155.922318,89.941795 146.235840,93.511391 
	C144.818695,94.033623 143.535522,96.222389 143.102661,97.878494 
	C141.544846,103.838699 140.401917,109.906433 139.057953,115.923653 
	C136.367752,127.968185 133.705750,140.019531 130.913208,152.040436 
	C129.768265,156.969070 128.315491,161.826187 127.002762,166.715836 
	C125.915596,164.591202 126.161583,162.615677 125.875778,160.720322 
	C123.980713,148.152817 121.999138,135.598114 119.989998,123.048141 
	C118.652122,114.691216 117.221992,106.349052 115.975006,97.268654 
	C115.685860,96.162971 115.396713,95.057281 115.012138,93.300163 
	C114.952477,92.866867 114.892815,92.433578 114.975113,91.158081 
z"/>
<path fill="#26C3C9" opacity="1.000000" stroke="none" 
	d="
M322.023651,5.791932 
	C321.520111,6.069105 321.082336,6.023443 320.322083,5.905578 
	C320.776764,4.914738 321.553925,3.996102 322.665558,3.038738 
	C322.696472,3.823039 322.392975,4.646068 322.023651,5.791932 
z"/>
<path fill="#27C3C9" opacity="1.000000" stroke="none" 
	d="
M115.833153,98.000282 
	C117.221992,106.349052 118.652122,114.691216 119.989998,123.048141 
	C121.999138,135.598114 123.980713,148.152817 125.875778,160.720322 
	C126.161583,162.615677 125.915596,164.591202 127.002762,166.715836 
	C128.315491,161.826187 129.768265,156.969070 130.913208,152.040436 
	C133.705750,140.019531 136.367752,127.968185 139.057953,115.923653 
	C140.401917,109.906433 141.544846,103.838699 143.102661,97.878494 
	C143.535522,96.222389 144.818695,94.033623 146.235840,93.511391 
	C155.922318,89.941795 165.822586,88.883583 176.047012,91.461365 
	C185.305496,93.795609 188.862167,100.582558 190.962936,108.918198 
	C195.599304,127.314621 200.341156,145.684525 205.092224,164.051743 
	C205.315445,164.914719 206.044083,165.646957 206.621796,166.575867 
	C208.427231,154.139420 210.364761,142.049637 211.888931,129.907959 
	C213.175354,119.660065 213.902267,109.343231 215.022690,99.072830 
	C216.264526,87.689354 217.636490,76.319450 219.077957,64.959641 
	C219.187622,64.095383 220.138199,63.047436 220.973068,62.609776 
	C231.214325,57.241032 241.749100,56.454838 252.415909,61.195145 
	C257.537811,63.471310 259.931152,67.629341 260.032471,73.310951 
	C260.309143,88.830032 257.967407,104.053497 255.025024,119.204475 
	C251.089844,139.467575 247.151031,159.732086 242.913940,179.933090 
	C241.721481,185.618332 240.144577,191.435867 237.457672,196.511810 
	C235.939621,199.379700 232.089096,201.827957 228.797394,202.800186 
	C214.915512,206.900360 200.959076,208.085831 187.081512,202.126984 
	C181.617615,199.780884 179.427628,195.487717 177.992645,190.283524 
	C173.906693,175.465134 169.758240,160.663971 165.660599,145.950226 
	C161.446945,162.951660 157.291840,180.015396 152.879898,197.012451 
	C152.480423,198.551437 150.654251,200.102127 149.105545,200.898941 
	C138.827896,206.186768 127.852768,207.412689 116.640953,205.176636 
	C111.181824,204.087891 105.507080,202.654709 100.754753,199.935776 
	C97.443649,198.041397 94.207214,194.053909 93.218315,190.386414 
	C87.436348,168.943176 81.995804,147.393280 77.107475,125.728790 
	C73.851364,111.298149 71.584785,96.637054 69.150711,82.033203 
	C68.544693,78.397179 69.004463,74.583519 69.143150,70.187897 
	C72.386711,67.225578 75.467766,64.935211 78.533554,62.624592 
	C80.037071,61.491425 81.512260,60.320679 83.000275,59.166939 
	C83.738403,59.106167 84.476524,59.045399 85.866425,59.202530 
	C88.878174,59.947121 91.224167,60.844543 93.600624,60.934208 
	C102.347145,61.264221 108.022903,65.944519 110.075951,74.529457 
	C110.538177,76.462318 111.890579,78.182304 112.833191,80.000282 
	C112.833191,80.000282 112.982628,80.436874 112.862999,81.035583 
	C111.746208,85.431084 111.183464,89.140297 114.833145,92.000282 
	C114.892815,92.433578 114.952477,92.866867 114.865921,93.878899 
	C115.090851,95.638519 115.462006,96.819397 115.833153,98.000282 
z"/>
<path fill="#27C3C9" opacity="1.000000" stroke="none" 
	d="
M112.904053,79.582848 
	C111.890579,78.182304 110.538177,76.462318 110.075951,74.529457 
	C108.022903,65.944519 102.347145,61.264221 93.600624,60.934208 
	C91.224167,60.844543 88.878174,59.947121 86.234955,59.156101 
	C101.187263,56.576698 112.471619,62.910702 112.904053,79.582848 
z"/>
<path fill="#27C3C9" opacity="1.000000" stroke="none" 
	d="
M82.623718,59.103043 
	C81.512260,60.320679 80.037071,61.491425 78.533554,62.624592 
	C75.467766,64.935211 72.386711,67.225578 69.131233,69.815308 
	C69.092873,68.778290 68.754761,66.691513 69.456642,66.247040 
	C73.585777,63.632217 77.957306,61.400169 82.623718,59.103043 
z"/>
<path fill="#27C3C9" opacity="1.000000" stroke="none" 
	d="
M114.904129,91.579178 
	C111.183464,89.140297 111.746208,85.431084 112.896591,81.263870 
	C113.691582,84.314980 114.333351,87.736534 114.904129,91.579178 
z"/>
<path fill="#27C3C9" opacity="1.000000" stroke="none" 
	d="
M115.904083,97.634468 
	C115.462006,96.819397 115.090851,95.638519 114.913635,94.204620 
	C115.396713,95.057281 115.685860,96.162971 115.904083,97.634468 
z"/>
</svg>