<svg version="1.1" xmlns="http://www.w3.org/2000/svg" xmlns:xlink="http://www.w3.org/1999/xlink" width="500" height="500"><g data-paper-data="{&quot;description&quot;:&quot;Logo for withavatar\n===================\n\nThis logo was generated by MarkMaker at http://emblemmatic.org/markmaker/ and may be composed of elements designed by others.\n\nThe font is Baloo Tamma designed by Ek Type and released under the OFL license via Google Fonts: https://www.google.com/fonts/specimen/Baloo%20Tamma. The font includes this copyright statement: Copyright (c) 2015, Ek Type. All rights reserved.\n\nMarkMaker uses semantic data from the Princeton University WordNet database http://wordnet.princeton.edu and font descriptions from Google Fonts https://www.google.com/fonts.&quot;}" fill="none" fill-rule="nonzero" stroke="none" stroke-width="none" stroke-linecap="butt" stroke-linejoin="miter" stroke-miterlimit="10" stroke-dasharray="" stroke-dashoffset="0" font-family="none" font-weight="none" font-size="none" text-anchor="none" style="mix-blend-mode: normal"><path d="M90,338.95462v-257.54647h320v257.54647z" fill="none" stroke="#27c3c9" stroke-width="3.5"></path><g data-paper-data="{&quot;elementType&quot;:&quot;logo&quot;}" fill="#c57c0d" stroke="none" stroke-width="1"><g data-paper-data="{&quot;elementType&quot;:&quot;text&quot;}"><g data-paper-data="{&quot;baseline&quot;:71.10000000000001,&quot;elementType&quot;:&quot;row&quot;}"><g data-paper-data="{&quot;baselineProportion&quot;:0.9779917469050895,&quot;fontSize&quot;:100,&quot;baseline&quot;:71.10000000000001,&quot;elementType&quot;:&quot;word&quot;}"><path d="M77.0557,415.85091c-0.82523,0.70734 -1.94518,1.28205 -3.35986,1.72414c-1.41468,0.44209 -3.09461,0.66313 -5.03979,0.66313c-2.41674,0 -4.50928,-0.33893 -6.27763,-1.0168c-1.76835,-0.67787 -2.94724,-1.63572 -3.53669,-2.87356c-0.64839,-1.41468 -1.39994,-3.65458 -2.25464,-6.71972c-0.8547,-3.06513 -1.69467,-6.42499 -2.51989,-10.07958c-0.82523,-3.65458 -1.60625,-7.36811 -2.34306,-11.14058c-0.73681,-3.77247 -1.31152,-7.10286 -1.72414,-9.99116c0.82523,-0.82523 1.93045,-1.5473 3.31565,-2.16622c1.3852,-0.61892 2.90304,-0.92838 4.55349,-0.92838c2.06307,0 3.75774,0.45682 5.084,1.37047c1.32626,0.91365 2.13675,2.49042 2.43148,4.73033c0.58945,4.47981 1.09048,8.1786 1.50309,11.09637c0.41261,2.91777 0.75155,5.30504 1.0168,7.1618c0.26525,1.85676 0.47156,3.27144 0.61892,4.24403c0.14736,0.97259 0.27999,1.75361 0.39788,2.34306h0.35367c0.17683,-0.94312 0.4863,-2.31359 0.92838,-4.11141c0.44209,-1.79782 0.95785,-3.84615 1.5473,-6.145c0.58945,-2.29885 1.20837,-4.78927 1.85676,-7.47126c0.64839,-2.68199 1.29679,-5.34925 1.94518,-8.00177c1.1789,-0.64839 2.34306,-1.14943 3.49248,-1.50309c1.14943,-0.35367 2.57884,-0.5305 4.28824,-0.5305c2.06307,0 3.83142,0.3242 5.30504,0.97259c1.47362,0.64839 2.41674,1.65046 2.82935,3.00619c0.70734,2.59358 1.3852,5.11347 2.0336,7.55968c0.64839,2.44621 1.23784,4.71559 1.76835,6.80813c0.5305,2.09254 1.00206,3.94931 1.41468,5.57029c0.41261,1.62098 0.70734,2.90304 0.88417,3.84615h0.44209c0.64839,-4.53876 1.28205,-9.25435 1.90097,-14.14677c0.61892,-4.89243 1.19363,-9.87327 1.72414,-14.94253c1.06101,-0.64839 2.18096,-1.11995 3.35986,-1.41468c1.1789,-0.29472 2.3578,-0.44209 3.53669,-0.44209c2.06307,0 3.77247,0.44209 5.12821,1.32626c1.35573,0.88417 2.0336,2.41674 2.0336,4.5977c0,0.94312 -0.14736,2.3578 -0.44209,4.24403c-0.29472,1.88624 -0.67787,4.00825 -1.14943,6.36605c-0.47156,2.3578 -1.0168,4.83348 -1.63572,7.42706c-0.61892,2.59358 -1.23784,5.09873 -1.85676,7.51547c-0.61892,2.41674 -1.20837,4.5977 -1.76835,6.54288c-0.55998,1.94518 -1.04627,3.44828 -1.45889,4.50928c-0.82523,0.70734 -2.09254,1.28205 -3.80195,1.72414c-1.7094,0.44209 -3.53669,0.66313 -5.48187,0.66313c-4.95137,0 -7.86914,-1.23784 -8.75332,-3.71353c-0.35367,-1.06101 -0.79576,-2.402 -1.32626,-4.02299c-0.5305,-1.62098 -1.09048,-3.40407 -1.67993,-5.34925c-0.58945,-1.94518 -1.14943,-3.96404 -1.67993,-6.05659c-0.5305,-2.09254 -0.97259,-4.11141 -1.32626,-6.05659c-0.41261,2.06307 -0.91365,4.19982 -1.50309,6.41026c-0.58945,2.21043 -1.19363,4.36192 -1.81256,6.45447c-0.61892,2.09254 -1.19363,4.00825 -1.72414,5.74713c-0.5305,1.73887 -0.94312,3.13882 -1.23784,4.19982z" data-paper-data="{&quot;elementType&quot;:&quot;letter&quot;,&quot;baseline&quot;:49.6,&quot;baselineProportion&quot;:0.9763779527559054,&quot;fontSize&quot;:100}"></path><path d="M133.37754,417.08875c-0.64839,0.11789 -1.60625,0.27999 -2.87356,0.4863c-1.26732,0.20631 -2.54937,0.30946 -3.84615,0.30946c-1.29679,0 -2.46095,-0.08842 -3.49248,-0.26525c-1.03154,-0.17683 -1.90097,-0.5305 -2.60831,-1.06101c-0.70734,-0.5305 -1.25258,-1.25258 -1.63572,-2.16622c-0.38314,-0.91365 -0.57471,-2.10728 -0.57471,-3.5809v-35.98585c0.64839,-0.11789 1.60625,-0.27999 2.87356,-0.4863c1.26732,-0.20631 2.54937,-0.30946 3.84615,-0.30946c1.29679,0 2.46095,0.08842 3.49248,0.26525c1.03154,0.17683 1.90097,0.5305 2.60831,1.06101c0.70734,0.5305 1.25258,1.25258 1.63572,2.16622c0.38314,0.91365 0.57471,2.10728 0.57471,3.5809zM117.63926,362.27001c0,-2.23991 0.75155,-4.12614 2.25464,-5.65871c1.50309,-1.53257 3.49248,-2.29885 5.96817,-2.29885c2.47569,0 4.46508,0.76628 5.96817,2.29885c1.50309,1.53257 2.25464,3.4188 2.25464,5.65871c0,2.23991 -0.75155,4.12614 -2.25464,5.65871c-1.50309,1.53257 -3.49248,2.29885 -5.96817,2.29885c-2.47569,0 -4.46508,-0.76628 -5.96817,-2.29885c-1.50309,-1.53257 -2.25464,-3.4188 -2.25464,-5.65871" data-paper-data="{&quot;elementType&quot;:&quot;letter&quot;,&quot;baseline&quot;:71.10000000000001,&quot;baselineProportion&quot;:0.9888734353268429,&quot;fontSize&quot;:100}"></path><path d="M153.44828,402.41148c0,1.53257 0.4863,2.62305 1.45889,3.27144c0.97259,0.64839 2.34306,0.97259 4.11141,0.97259c0.88417,0 1.79782,-0.07368 2.74094,-0.22104c0.94312,-0.14736 1.76835,-0.33893 2.47569,-0.57471c0.5305,0.64839 0.98733,1.37047 1.37047,2.16622c0.38314,0.79576 0.57471,1.75361 0.57471,2.87356c0,2.23991 -0.83996,4.0672 -2.51989,5.48187c-1.67993,1.41468 -4.64191,2.12202 -8.88594,2.12202c-5.18715,0 -9.18067,-1.1789 -11.98055,-3.53669c-2.79988,-2.3578 -4.19982,-6.18921 -4.19982,-11.49425v-37.84262c0.64839,-0.17683 1.57678,-0.36841 2.78515,-0.57471c1.20837,-0.20631 2.49042,-0.30946 3.84615,-0.30946c2.59358,0 4.61244,0.45682 6.05659,1.37047c1.44415,0.91365 2.16622,2.84409 2.16622,5.79134v5.65871h11.58267c0.35367,0.64839 0.6926,1.45889 1.0168,2.43148c0.3242,0.97259 0.4863,2.04833 0.4863,3.22723c0,2.06307 -0.45682,3.55143 -1.37047,4.46508c-0.91365,0.91365 -2.13675,1.37047 -3.66932,1.37047h-8.04598z" data-paper-data="{&quot;elementType&quot;:&quot;letter&quot;,&quot;baseline&quot;:59.300000000000004,&quot;baselineProportion&quot;:0.975328947368421,&quot;fontSize&quot;:100}"></path><path d="M211.7153,417.08875c-0.58945,0.17683 -1.51783,0.35367 -2.78515,0.5305c-1.26732,0.17683 -2.57884,0.26525 -3.93457,0.26525c-1.29679,0 -2.46095,-0.08842 -3.49248,-0.26525c-1.03154,-0.17683 -1.90097,-0.5305 -2.60831,-1.06101c-0.70734,-0.5305 -1.25258,-1.25258 -1.63572,-2.16622c-0.38314,-0.91365 -0.57471,-2.10728 -0.57471,-3.5809v-19.62865c0,-2.41674 -0.60419,-4.11141 -1.81256,-5.084c-1.20837,-0.97259 -2.69673,-1.45889 -4.46508,-1.45889c-1.1789,0 -2.29885,0.14736 -3.35986,0.44209c-1.06101,0.29472 -1.91571,0.64839 -2.5641,1.06101v30.94607c-0.58945,0.17683 -1.51783,0.35367 -2.78515,0.5305c-1.26732,0.17683 -2.57884,0.26525 -3.93457,0.26525c-1.29679,0 -2.46095,-0.08842 -3.49248,-0.26525c-1.03154,-0.17683 -1.90097,-0.5305 -2.60831,-1.06101c-0.70734,-0.5305 -1.25258,-1.25258 -1.63572,-2.16622c-0.38314,-0.91365 -0.57471,-2.10728 -0.57471,-3.5809v-51.28205c0.64839,-0.11789 1.60625,-0.27999 2.87356,-0.4863c1.26732,-0.20631 2.54937,-0.30946 3.84615,-0.30946c1.29679,0 2.46095,0.08842 3.49248,0.26525c1.03154,0.17683 1.90097,0.5305 2.60831,1.06101c0.70734,0.5305 1.25258,1.25258 1.63572,2.16622c0.38314,0.91365 0.57471,2.10728 0.57471,3.5809v8.6649c0.76628,-0.29472 1.93045,-0.63366 3.49248,-1.0168c1.56204,-0.38314 3.28618,-0.57471 5.17241,-0.57471c5.83554,0 10.38904,1.45889 13.66048,4.37666c3.27144,2.91777 4.90716,7.26496 4.90716,13.04156z" data-paper-data="{&quot;elementType&quot;:&quot;letter&quot;,&quot;baseline&quot;:66.10000000000001,&quot;baselineProportion&quot;:0.9880418535127056,&quot;fontSize&quot;:100}"></path><path d="M234.1733,372.88009c3.18302,0 6.08606,0.3242 8.70911,0.97259c2.62305,0.64839 4.86295,1.63572 6.71972,2.96198c1.85676,1.32626 3.28618,3.00619 4.28824,5.03979c1.00206,2.0336 1.50309,4.4356 1.50309,7.20601v19.80548c0,1.53257 -0.42735,2.78515 -1.28205,3.75774c-0.8547,0.97259 -1.8715,1.81256 -3.0504,2.51989c-3.83142,2.29885 -9.22487,3.44828 -16.18037,3.44828c-3.12408,0 -5.9387,-0.29472 -8.44385,-0.88417c-2.50516,-0.58945 -4.65665,-1.47362 -6.45447,-2.65252c-1.79782,-1.1789 -3.18302,-2.68199 -4.15561,-4.50928c-0.97259,-1.82729 -1.45889,-3.94931 -1.45889,-6.36605c0,-4.0672 1.20837,-7.19128 3.62511,-9.37224c2.41674,-2.18096 6.15974,-3.53669 11.229,-4.0672l11.58267,-1.23784v-0.61892c0,-1.7094 -0.75155,-2.93251 -2.25464,-3.66932c-1.50309,-0.73681 -3.66932,-1.10522 -6.49867,-1.10522c-2.23991,0 -4.42087,0.23578 -6.54288,0.70734c-2.12202,0.47156 -4.03772,1.06101 -5.74713,1.76835c-0.76628,-0.5305 -1.41468,-1.341 -1.94518,-2.43148c-0.5305,-1.09048 -0.79576,-2.22517 -0.79576,-3.40407c0,-1.53257 0.36841,-2.75567 1.10522,-3.66932c0.73681,-0.91365 1.8715,-1.69467 3.40407,-2.34306c1.7094,-0.64839 3.72826,-1.11995 6.05659,-1.41468c2.32832,-0.29472 4.52402,-0.44209 6.58709,-0.44209zM234.88064,407.6281c1.00206,0 2.10728,-0.10315 3.31565,-0.30946c1.20837,-0.20631 2.10728,-0.4863 2.69673,-0.83996v-7.07339l-6.36605,0.5305c-1.65046,0.11789 -3.00619,0.47156 -4.0672,1.06101c-1.06101,0.58945 -1.59151,1.47362 -1.59151,2.65252c0,1.1789 0.45682,2.13675 1.37047,2.87356c0.91365,0.73681 2.46095,1.10522 4.64191,1.10522" data-paper-data="{&quot;elementType&quot;:&quot;letter&quot;,&quot;baseline&quot;:50.1,&quot;baselineProportion&quot;:0.9690522243713734,&quot;fontSize&quot;:100}"></path><path d="M287.7542,416.02775c-0.82523,0.64839 -2.0336,1.1789 -3.62511,1.59151c-1.59151,0.41261 -3.38933,0.61892 -5.39346,0.61892c-2.29885,0 -4.28824,-0.29472 -5.96817,-0.88417c-1.67993,-0.58945 -2.84409,-1.53257 -3.49248,-2.82935c-0.5305,-1.00206 -1.16416,-2.402 -1.90097,-4.19982c-0.73681,-1.79782 -1.51783,-3.80195 -2.34306,-6.01238c-0.82523,-2.21043 -1.67993,-4.58296 -2.5641,-7.1176c-0.88417,-2.53463 -1.72414,-5.03979 -2.51989,-7.51547c-0.79576,-2.47569 -1.51783,-4.86295 -2.16622,-7.1618c-0.64839,-2.29885 -1.1789,-4.33245 -1.59151,-6.1008c0.82523,-0.82523 1.93045,-1.5473 3.31565,-2.16622c1.3852,-0.61892 2.90304,-0.92838 4.55349,-0.92838c2.06307,0 3.75774,0.42735 5.084,1.28205c1.32626,0.8547 2.31359,2.46095 2.96198,4.81874l3.44828,13.52785c0.64839,2.65252 1.26732,5.05452 1.85676,7.20601c0.58945,2.15149 1.03154,3.81668 1.32626,4.99558h0.44209c1.11995,-4.36192 2.29885,-9.1954 3.53669,-14.50044c1.23784,-5.30504 2.3578,-10.52166 3.35986,-15.64987c1.00206,-0.5305 2.13675,-0.94312 3.40407,-1.23784c1.26732,-0.29472 2.49042,-0.44209 3.66932,-0.44209c2.06307,0 3.80195,0.44209 5.21662,1.32626c1.41468,0.88417 2.12202,2.41674 2.12202,4.5977c0,0.94312 -0.22104,2.31359 -0.66313,4.11141c-0.44209,1.79782 -1.00206,3.83142 -1.67993,6.1008c-0.67787,2.26938 -1.47362,4.67138 -2.38727,7.20601c-0.91365,2.53463 -1.84203,5.01032 -2.78515,7.42706c-0.94312,2.41674 -1.8715,4.67138 -2.78515,6.76393c-0.91365,2.09254 -1.72414,3.81668 -2.43148,5.17241z" data-paper-data="{&quot;elementType&quot;:&quot;letter&quot;,&quot;baseline&quot;:49.6,&quot;baselineProportion&quot;:0.9763779527559054,&quot;fontSize&quot;:100}"></path><path d="M319.49602,372.88009c3.18302,0 6.08606,0.3242 8.70911,0.97259c2.62305,0.64839 4.86295,1.63572 6.71972,2.96198c1.85676,1.32626 3.28618,3.00619 4.28824,5.03979c1.00206,2.0336 1.50309,4.4356 1.50309,7.20601v19.80548c0,1.53257 -0.42735,2.78515 -1.28205,3.75774c-0.8547,0.97259 -1.8715,1.81256 -3.0504,2.51989c-3.83142,2.29885 -9.22487,3.44828 -16.18037,3.44828c-3.12408,0 -5.9387,-0.29472 -8.44385,-0.88417c-2.50516,-0.58945 -4.65665,-1.47362 -6.45447,-2.65252c-1.79782,-1.1789 -3.18302,-2.68199 -4.15561,-4.50928c-0.97259,-1.82729 -1.45889,-3.94931 -1.45889,-6.36605c0,-4.0672 1.20837,-7.19128 3.62511,-9.37224c2.41674,-2.18096 6.15974,-3.53669 11.229,-4.0672l11.58267,-1.23784v-0.61892c0,-1.7094 -0.75155,-2.93251 -2.25464,-3.66932c-1.50309,-0.73681 -3.66932,-1.10522 -6.49867,-1.10522c-2.23991,0 -4.42087,0.23578 -6.54288,0.70734c-2.12202,0.47156 -4.03772,1.06101 -5.74713,1.76835c-0.76628,-0.5305 -1.41468,-1.341 -1.94518,-2.43148c-0.5305,-1.09048 -0.79576,-2.22517 -0.79576,-3.40407c0,-1.53257 0.36841,-2.75567 1.10522,-3.66932c0.73681,-0.91365 1.8715,-1.69467 3.40407,-2.34306c1.7094,-0.64839 3.72826,-1.11995 6.05659,-1.41468c2.32832,-0.29472 4.52402,-0.44209 6.58709,-0.44209zM320.20336,407.6281c1.00206,0 2.10728,-0.10315 3.31565,-0.30946c1.20837,-0.20631 2.10728,-0.4863 2.69673,-0.83996v-7.07339l-6.36605,0.5305c-1.65046,0.11789 -3.00619,0.47156 -4.0672,1.06101c-1.06101,0.58945 -1.59151,1.47362 -1.59151,2.65252c0,1.1789 0.45682,2.13675 1.37047,2.87356c0.91365,0.73681 2.46095,1.10522 4.64191,1.10522" data-paper-data="{&quot;elementType&quot;:&quot;letter&quot;,&quot;baseline&quot;:50.1,&quot;baselineProportion&quot;:0.9690522243713734,&quot;fontSize&quot;:100}"></path><path d="M360.43324,402.41148c0,1.53257 0.4863,2.62305 1.45889,3.27144c0.97259,0.64839 2.34306,0.97259 4.11141,0.97259c0.88417,0 1.79782,-0.07368 2.74094,-0.22104c0.94312,-0.14736 1.76835,-0.33893 2.47569,-0.57471c0.5305,0.64839 0.98733,1.37047 1.37047,2.16622c0.38314,0.79576 0.57471,1.75361 0.57471,2.87356c0,2.23991 -0.83996,4.0672 -2.51989,5.48187c-1.67993,1.41468 -4.64191,2.12202 -8.88594,2.12202c-5.18715,0 -9.18067,-1.1789 -11.98055,-3.53669c-2.79988,-2.3578 -4.19982,-6.18921 -4.19982,-11.49425v-37.84262c0.64839,-0.17683 1.57678,-0.36841 2.78515,-0.57471c1.20837,-0.20631 2.49042,-0.30946 3.84615,-0.30946c2.59358,0 4.61244,0.45682 6.05659,1.37047c1.44415,0.91365 2.16622,2.84409 2.16622,5.79134v5.65871h11.58267c0.35367,0.64839 0.6926,1.45889 1.0168,2.43148c0.3242,0.97259 0.4863,2.04833 0.4863,3.22723c0,2.06307 -0.45682,3.55143 -1.37047,4.46508c-0.91365,0.91365 -2.13675,1.37047 -3.66932,1.37047h-8.04598z" data-paper-data="{&quot;elementType&quot;:&quot;letter&quot;,&quot;baseline&quot;:59.300000000000004,&quot;baselineProportion&quot;:0.975328947368421,&quot;fontSize&quot;:100}"></path><path d="M393.94341,372.88009c3.18302,0 6.08606,0.3242 8.70911,0.97259c2.62305,0.64839 4.86295,1.63572 6.71972,2.96198c1.85676,1.32626 3.28618,3.00619 4.28824,5.03979c1.00206,2.0336 1.50309,4.4356 1.50309,7.20601v19.80548c0,1.53257 -0.42735,2.78515 -1.28205,3.75774c-0.8547,0.97259 -1.8715,1.81256 -3.0504,2.51989c-3.83142,2.29885 -9.22487,3.44828 -16.18037,3.44828c-3.12408,0 -5.9387,-0.29472 -8.44385,-0.88417c-2.50516,-0.58945 -4.65665,-1.47362 -6.45447,-2.65252c-1.79782,-1.1789 -3.18302,-2.68199 -4.15561,-4.50928c-0.97259,-1.82729 -1.45889,-3.94931 -1.45889,-6.36605c0,-4.0672 1.20837,-7.19128 3.62511,-9.37224c2.41674,-2.18096 6.15974,-3.53669 11.229,-4.0672l11.58267,-1.23784v-0.61892c0,-1.7094 -0.75155,-2.93251 -2.25464,-3.66932c-1.50309,-0.73681 -3.66932,-1.10522 -6.49867,-1.10522c-2.23991,0 -4.42087,0.23578 -6.54288,0.70734c-2.12202,0.47156 -4.03772,1.06101 -5.74713,1.76835c-0.76628,-0.5305 -1.41468,-1.341 -1.94518,-2.43148c-0.5305,-1.09048 -0.79576,-2.22517 -0.79576,-3.40407c0,-1.53257 0.36841,-2.75567 1.10522,-3.66932c0.73681,-0.91365 1.8715,-1.69467 3.40407,-2.34306c1.7094,-0.64839 3.72826,-1.11995 6.05659,-1.41468c2.32832,-0.29472 4.52402,-0.44209 6.58709,-0.44209zM394.65075,407.6281c1.00206,0 2.10728,-0.10315 3.31565,-0.30946c1.20837,-0.20631 2.10728,-0.4863 2.69673,-0.83996v-7.07339l-6.36605,0.5305c-1.65046,0.11789 -3.00619,0.47156 -4.0672,1.06101c-1.06101,0.58945 -1.59151,1.47362 -1.59151,2.65252c0,1.1789 0.45682,2.13675 1.37047,2.87356c0.91365,0.73681 2.46095,1.10522 4.64191,1.10522" data-paper-data="{&quot;elementType&quot;:&quot;letter&quot;,&quot;baseline&quot;:50.1,&quot;baselineProportion&quot;:0.9690522243713734,&quot;fontSize&quot;:100}"></path><path d="M434.88064,417.08875c-0.58945,0.17683 -1.51783,0.35367 -2.78515,0.5305c-1.26732,0.17683 -2.57884,0.26525 -3.93457,0.26525c-1.29679,0 -2.46095,-0.08842 -3.49248,-0.26525c-1.03154,-0.17683 -1.90097,-0.5305 -2.60831,-1.06101c-0.70734,-0.5305 -1.25258,-1.25258 -1.63572,-2.16622c-0.38314,-0.91365 -0.57471,-2.10728 -0.57471,-3.5809v-26.5252c0,-1.35573 0.25052,-2.51989 0.75155,-3.49248c0.50103,-0.97259 1.22311,-1.84203 2.16622,-2.60831c0.94312,-0.76628 2.10728,-1.45889 3.49248,-2.07781c1.3852,-0.61892 2.87356,-1.16416 4.46508,-1.63572c1.59151,-0.47156 3.24197,-0.83996 4.95137,-1.10522c1.7094,-0.26525 3.4188,-0.39788 5.12821,-0.39788c2.82935,0 5.06926,0.54524 6.71972,1.63572c1.65046,1.09048 2.47569,2.87356 2.47569,5.34925c0,0.82523 -0.11789,1.63572 -0.35367,2.43148c-0.23578,0.79576 -0.5305,1.51783 -0.88417,2.16622c-1.23784,0 -2.50516,0.05894 -3.80195,0.17683c-1.29679,0.11789 -2.5641,0.29472 -3.80195,0.5305c-1.23784,0.23578 -2.402,0.4863 -3.49248,0.75155c-1.09048,0.26525 -2.01886,0.57471 -2.78515,0.92838z" data-paper-data="{&quot;elementType&quot;:&quot;letter&quot;,&quot;baseline&quot;:50,&quot;baselineProportion&quot;:0.984251968503937,&quot;fontSize&quot;:100}"></path></g></g></g></g><g data-paper-data="{&quot;elementType&quot;:&quot;emblem&quot;}" fill="#27c3c9" stroke="none" stroke-width="1"><g data-paper-data="{&quot;baselineProportion&quot;:0.9870550161812298,&quot;fontSize&quot;:100,&quot;baseline&quot;:61,&quot;elementType&quot;:&quot;word&quot;}"><path d="M230.13383,172.82823c1.74473,-0.79306 4.48079,-1.70508 8.20818,-2.73606c3.72739,-1.03098 7.49442,-1.54647 11.30112,-1.54647c6.66171,0 12.21314,0.99133 16.65428,2.97398c4.44114,1.98265 7.13755,4.87732 8.08922,8.68401c1.74473,6.5031 3.37051,12.57001 4.87732,18.20074c1.50682,5.63073 2.97398,11.02354 4.40149,16.17844c1.42751,5.15489 2.81537,10.27014 4.16357,15.34572c1.3482,5.07559 2.65675,10.3891 3.92565,15.94052h1.18959c1.42751,-9.67534 2.69641,-18.9145 3.80669,-27.71747c1.11029,-8.80297 2.14126,-17.44734 3.09294,-25.93309c0.95167,-8.48575 1.90335,-16.89219 2.85502,-25.21933c0.95167,-8.32714 1.90335,-16.77323 2.85502,-25.33829c5.86865,-3.33086 12.13383,-4.99628 18.79554,-4.99628c5.86865,0 10.94424,1.2689 15.22677,3.80669c4.28253,2.53779 6.42379,6.82032 6.42379,12.84758c0,3.48947 -0.35688,8.4461 -1.07063,14.86989c-0.71375,6.42379 -1.66543,13.60099 -2.85502,21.5316c-1.18959,7.93061 -2.57745,16.25774 -4.16357,24.98141c-1.58612,8.72367 -3.25155,17.05081 -4.99628,24.98141c-1.74473,7.93061 -3.52912,15.10781 -5.35316,21.5316c-1.82404,6.42379 -3.52912,11.38042 -5.11524,14.86989c-2.37918,2.22057 -6.26518,4.04461 -11.65799,5.47212c-5.39281,1.42751 -10.94424,2.14126 -16.65428,2.14126c-7.45477,0 -13.7596,-0.99133 -18.9145,-2.97398c-5.15489,-1.98265 -8.28748,-4.79802 -9.39777,-8.4461c-2.06196,-6.34449 -4.28253,-13.87856 -6.66171,-22.60223c-2.37918,-8.72367 -4.91698,-18.3197 -7.61338,-28.7881c-2.22057,10.30979 -4.52045,20.38166 -6.89963,30.21561c-2.37918,9.83395 -4.52045,18.16109 -6.42379,24.98141c-2.37918,2.22057 -5.94796,4.04461 -10.70632,5.47212c-4.75836,1.42751 -9.99257,2.14126 -15.7026,2.14126c-7.13755,0 -13.60099,-0.99133 -19.39033,-2.97398c-5.78934,-1.98265 -9.55638,-4.79802 -11.30112,-8.4461c-1.42751,-2.85502 -2.97398,-7.09789 -4.63941,-12.72862c-1.66543,-5.63073 -3.37051,-12.05452 -5.11524,-19.27138c-1.74473,-7.21685 -3.52912,-15.0285 -5.35316,-23.43494c-1.82404,-8.40644 -3.48947,-16.81289 -4.99628,-25.21933c-1.50682,-8.40644 -2.89467,-16.61462 -4.16357,-24.62454c-1.2689,-8.00991 -2.22057,-15.34572 -2.85502,-22.00743c2.22057,-2.06196 5.31351,-3.9653 9.27881,-5.71004c3.9653,-1.74473 8.24783,-2.6171 12.84758,-2.6171c6.02726,0 10.98389,1.30855 14.86989,3.92565c3.886,2.6171 6.30483,7.01859 7.25651,13.20446c2.53779,16.17844 4.63941,29.66047 6.30483,40.4461c1.66543,10.78563 3.01363,19.62825 4.04461,26.52788c1.03098,6.89963 1.78439,12.25279 2.26022,16.05948c0.47584,3.80669 0.95167,6.82032 1.42751,9.04089h1.18959c1.42751,-6.34449 2.77571,-12.21314 4.04461,-17.60595c1.2689,-5.39281 2.57745,-10.82528 3.92565,-16.2974c1.3482,-5.47212 2.73606,-11.34077 4.16357,-17.60595c1.42751,-6.26518 2.93432,-13.44238 4.52045,-21.5316z" data-paper-data="{&quot;elementType&quot;:&quot;letter&quot;,&quot;baseline&quot;:61,&quot;baselineProportion&quot;:0.9870550161812298,&quot;fontSize&quot;:100}"></path></g></g></g></svg>